<?xml version="1.0" encoding="utf-8"?>
<!-- Generator: Adobe Illustrator 24.0.0, SVG Export Plug-In . SVG Version: 6.00 Build 0)  -->
<svg version="1.1" id="Layer_1" xmlns="http://www.w3.org/2000/svg" xmlns:xlink="http://www.w3.org/1999/xlink" x="0px" y="0px"
	 viewBox="0 0 67.8 20.8" style="enable-background:new 0 0 67.8 20.8;" xml:space="preserve">
<style type="text/css">
	.st0{fill:#60D1C9;}
</style>
<g>
	<path class="st0" d="M35.9,18.1h-2.9v-5c0-0.4-0.1-0.6-0.3-0.9S32.3,12,32,12c-0.3,0-0.6,0.1-0.7,0.3S31,12.8,31,13.2v5h-2.9v-5.4
		c0-0.5,0.1-0.9,0.3-1.3c0.2-0.4,0.4-0.7,0.8-0.9s0.7-0.5,1.2-0.6s1-0.2,1.5-0.2c0.5,0,0.9,0.1,1.4,0.3s0.8,0.4,1.2,0.7
		c0.4-0.3,0.8-0.5,1.2-0.7c0.5-0.2,0.9-0.3,1.4-0.3c0.6,0,1.1,0.1,1.5,0.2c0.5,0.1,0.9,0.3,1.2,0.6s0.6,0.6,0.8,0.9
		c0.2,0.4,0.3,0.8,0.3,1.3v5.4H38v-5c0-0.4-0.1-0.6-0.3-0.9S37.3,12,37,12s-0.6,0.1-0.8,0.3S36,12.8,36,13.2L35.9,18.1L35.9,18.1z"
		/>
	<path class="st0" d="M44.7,14.8c0.1,0.4,0.3,0.7,0.5,1c0.3,0.2,0.6,0.4,1,0.4c0.3,0,0.6-0.1,0.9-0.2s0.4-0.3,0.5-0.6h3
		c-0.1,0.4-0.3,0.8-0.5,1.2c-0.2,0.4-0.5,0.7-0.9,1c-0.4,0.3-0.8,0.5-1.3,0.6c-0.5,0.2-1,0.2-1.7,0.2c-0.7,0-1.4-0.1-2-0.3
		c-0.6-0.2-1-0.5-1.4-0.9c-0.4-0.4-0.7-0.9-0.9-1.4c-0.2-0.5-0.3-1.1-0.3-1.7s0.1-1.2,0.3-1.7c0.2-0.5,0.5-1,0.8-1.4
		c0.4-0.4,0.8-0.7,1.4-0.9s1.2-0.3,2-0.3s1.4,0.1,2,0.3c0.6,0.2,1,0.5,1.4,0.9c0.4,0.4,0.7,0.9,0.8,1.4c0.2,0.5,0.3,1.1,0.3,1.7
		c0,0.1,0,0.3,0,0.4c0,0.1,0,0.3,0,0.4L44.7,14.8L44.7,14.8z M46.1,11.9c-0.4,0-0.7,0.1-0.9,0.3c-0.2,0.2-0.4,0.5-0.5,0.8h2.8
		c-0.1-0.3-0.3-0.6-0.5-0.8C46.8,12,46.5,11.9,46.1,11.9z"/>
	<path class="st0" d="M55.7,12c-0.4,0-0.8,0.1-1.1,0.3s-0.4,0.5-0.4,0.9v4.9h-2.9v-5.1c0-0.5,0.1-1,0.3-1.4s0.5-0.8,0.9-1.1
		c0.4-0.3,0.8-0.5,1.4-0.7c0.5-0.2,1.1-0.3,1.8-0.3s1.3,0.1,1.8,0.3c0.5,0.2,1,0.4,1.4,0.7c0.4,0.3,0.7,0.6,0.9,1.1s0.3,0.9,0.3,1.4
		v5.1h-2.9v-4.9c0-0.4-0.1-0.6-0.4-0.9C56.5,12.1,56.2,12,55.7,12z"/>
	<path class="st0" d="M66.5,15.8v2.3h-2.2c-0.4,0-0.7-0.1-1-0.2c-0.3-0.1-0.6-0.3-0.8-0.5s-0.4-0.5-0.5-0.8c-0.1-0.3-0.2-0.7-0.2-1
		v-3.4h-1.2V9.9h1.2V7.8h2.9v2.1h1.8v2.3h-1.8v3.1c0,0.1,0.1,0.3,0.1,0.4c0.1,0.1,0.2,0.1,0.4,0.1H66.5z"/>
	<g>
		<path class="st0" d="M9,18.9H3.1c-0.3,0-0.6-0.3-0.6-0.6V3.5c0-0.3,0.3-0.6,0.6-0.6l0,0c3.6,0,6.5,5.7,6.5,10.9v4.4
			C9.6,18.6,9.4,18.9,9,18.9z"/>
		<path class="st0" d="M10.9,18.9h5.9c0.4,0,0.6-0.3,0.6-0.6V3.5c0-0.3-0.3-0.6-0.6-0.6l0,0c-3.6,0-6.5,5.7-6.5,10.9v4.4
			C10.3,18.6,10.6,18.9,10.9,18.9z"/>
	</g>
	<path class="st0" d="M27.1,12.3c-0.2-0.5-0.5-1-0.8-1.4c-0.4-0.4-0.8-0.7-1.4-0.9s-1.2-0.3-2-0.3c-0.7,0-1.4,0.1-2,0.3
		c-0.6,0.2-1,0.5-1.4,0.9c-0.4,0.4-0.6,0.9-0.8,1.4c-0.2,0.5-0.3,1.1-0.3,1.7s0.1,1.2,0.3,1.7s0.5,1,0.8,1.4s0.8,0.7,1.4,0.9
		c0.6,0.2,1.2,0.3,2,0.3c0.7,0,1.4-0.1,2-0.3c0.6-0.2,1-0.5,1.4-0.9c0.4-0.4,0.6-0.9,0.8-1.4c0.2-0.5,0.3-1.1,0.3-1.7
		C27.3,13.4,27.2,12.9,27.1,12.3z M25.7,14.2l-2.3,0.3c0,0-0.1,0-0.1,0.1L23,16.8c0,0.1-0.2,0.1-0.2,0l-0.3-2.3c0,0,0-0.1-0.1-0.1
		l-2.3-0.3c-0.1,0-0.1-0.2,0-0.2l2.3-0.3c0,0,0.1,0,0.1-0.1l0.3-2.3c0-0.1,0.2-0.1,0.2,0l0.3,2.3c0,0,0,0.1,0.1,0.1l2.3,0.3
		C25.8,14,25.8,14.1,25.7,14.2z"/>
</g>
</svg>
