<svg id="Layer_1" data-name="Layer 1" xmlns="http://www.w3.org/2000/svg" viewBox="0 0 248.59 140.97"><defs><style>.cls-1{fill:#fab942;}</style></defs><title>logo</title><path class="cls-1" d="M61,129.85a71,71,0,0,1-18.38-2.35A46.16,46.16,0,0,1,27,120.19a36.61,36.61,0,0,1-10.79-12.63q-4-7.66-4-18.28a40.12,40.12,0,0,1,.29-4.82,12.21,12.21,0,0,1,1.23-4.22,7.58,7.58,0,0,1,2.77-3,9,9,0,0,1,4.85-1.16,21.16,21.16,0,0,1,6.4,1,44.05,44.05,0,0,1,6.4,2.6c2.11,1.06,4.18,2.18,6.19,3.38L46,86.43A52.25,52.25,0,0,0,50.85,89a9.09,9.09,0,0,0,3.73,1,1.94,1.94,0,0,0,2-1.09A5.56,5.56,0,0,0,57,86.68,6.66,6.66,0,0,0,55.38,82a13.46,13.46,0,0,0-4.32-3,37.84,37.84,0,0,0-6.12-2.15c-2.3-.6-4.63-1.26-7-2s-4.71-1.53-7-2.47a22.53,22.53,0,0,1-6.12-3.65,17.18,17.18,0,0,1-4.32-5.59,18.44,18.44,0,0,1-1.66-8.27,24.15,24.15,0,0,1,1.45-8.61,22.34,22.34,0,0,1,4-6.78,27.32,27.32,0,0,1,5.91-5.14,35.62,35.62,0,0,1,7.24-3.58A43.72,43.72,0,0,1,45.5,28.7a51.19,51.19,0,0,1,16.07-.07,52,52,0,0,1,8.16,1.87,46,46,0,0,1,7.77,3.23,29.47,29.47,0,0,1,6.61,4.71,21.2,21.2,0,0,1,4.57,6.29,18.32,18.32,0,0,1,1.69,8,16,16,0,0,1-.56,4.21,10.6,10.6,0,0,1-1.73,3.59A8.41,8.41,0,0,1,85.16,63a9,9,0,0,1-4.22.92,7.87,7.87,0,0,1-4.11-1A11.33,11.33,0,0,1,74,60.45a28.84,28.84,0,0,1-2.32-3.2,22.65,22.65,0,0,0-2.46-3.2,12.39,12.39,0,0,0-3.24-2.46,9.88,9.88,0,0,0-4.67-1,5.75,5.75,0,0,0-3.41.84c-.78.56-1.16,1.66-1.16,3.3a8.66,8.66,0,0,0,1.61,5.38A15.85,15.85,0,0,0,62.63,64a43,43,0,0,0,6.11,3.12c2.28,1,4.6,2,7,3.21a54.46,54.46,0,0,1,7,4.14,28,28,0,0,1,6.12,6,28.41,28.41,0,0,1,4.32,8.54,38.94,38.94,0,0,1,1.62,11.95,34.29,34.29,0,0,1-2.46,13.86,22.42,22.42,0,0,1-6.9,8.93,27.22,27.22,0,0,1-10.65,4.78A62.31,62.31,0,0,1,61,129.85Z"/><path class="cls-1" d="M233.43,103.77A31.54,31.54,0,0,0,232,99.09c-.58-1.52-1.24-3-2-4.5s-1.45-3-2.15-4.46q-2.88-5.77-5.17-11.75a115.26,115.26,0,0,1-3.9-12.23c-.61-2.25-1.15-4.73-1.62-7.42s-1-5.39-1.58-8.09a70.66,70.66,0,0,0-2.18-7.84,26.08,26.08,0,0,0-3.41-6.75,16.13,16.13,0,0,0-5.2-4.71,15.23,15.23,0,0,0-7.6-1.76,29,29,0,0,0-10.51,2,41.79,41.79,0,0,0-9.67,5.31,55.56,55.56,0,0,0-8.54,7.77,88.64,88.64,0,0,0-13.12,19.16,84.43,84.43,0,0,0-4.15,9.6,85.63,85.63,0,0,0-3.48,12.87,71.32,71.32,0,0,0-1.23,13.22,54.57,54.57,0,0,0,1.13,11.07,29,29,0,0,0,3.8,9.71,19.89,19.89,0,0,0,18,9.52,24.17,24.17,0,0,0,5.55-.66,17.66,17.66,0,0,0,5.13-2.08,11.45,11.45,0,0,0,3.77-3.65,10,10,0,0,0,1.44-5.49,21.13,21.13,0,0,0-.63-5.13,21,21,0,0,1-.64-5.21,15.58,15.58,0,0,1,.32-3,12.87,12.87,0,0,1,1-3,6.8,6.8,0,0,1,1.83-2.36,4.38,4.38,0,0,1,2.85-1,4.51,4.51,0,0,1,3.06,1.06,8.66,8.66,0,0,1,2,2.6,12.35,12.35,0,0,1,1.16,3.34,17.11,17.11,0,0,1,.35,3.2,19.22,19.22,0,0,1-.77,5.38,18.6,18.6,0,0,0-.78,5.31,9,9,0,0,0,1.44,5.16,10.92,10.92,0,0,0,3.73,3.45,17.64,17.64,0,0,0,5,1.9,24.63,24.63,0,0,0,5.27.6,25.88,25.88,0,0,0,8.9-1.55,23,23,0,0,0,7.45-4.36,20.92,20.92,0,0,0,5.1-6.82,20.38,20.38,0,0,0,1.9-8.86A22.82,22.82,0,0,0,233.43,103.77ZM190.26,94.5c-2.56,0-4.64-3.38-4.64-7.54,0-.4,0-.87.09-1.36,0-.08,0-.15,0-.22.54-4.79,3.13-13.11,5.67-10.57,1.64,1.64,3.49,8,3.49,12.15S192.81,94.5,190.26,94.5Z"/><path class="cls-1" d="M121.34,129.76a21.44,21.44,0,0,1-8.34-1.6,19.89,19.89,0,0,1-11-11,21.48,21.48,0,0,1-1.6-8.34,72.09,72.09,0,0,1,.61-9.94c.41-2.91.86-5.75,1.37-8.49s1-5.57,1.37-8.49a72,72,0,0,0,.61-9.93c0-1.07-.06-2.45-.19-4.15s-.28-3.47-.46-5.29-.33-3.56-.45-5.18-.19-2.87-.19-3.73a5.59,5.59,0,0,1,1.63-4,14.07,14.07,0,0,1,4-2.86,22,22,0,0,1,4.84-1.71,19.55,19.55,0,0,1,4.19-.57,29.8,29.8,0,0,1,7.88.88A12.93,12.93,0,0,1,130.71,48a9.69,9.69,0,0,1,2.81,4.34,19.54,19.54,0,0,1,.84,6,84.72,84.72,0,0,0,.61,9.82,87,87,0,0,1,.61,9.82,33.41,33.41,0,0,0,.68,7.35q.69,2.92,1.53,5.6c.56,1.77,1.06,3.65,1.52,5.63A33.81,33.81,0,0,1,140,104a33,33,0,0,1-1.25,8.87,31.46,31.46,0,0,1-3.62,8.3,20.72,20.72,0,0,1-5.82,6.17A13.63,13.63,0,0,1,121.34,129.76Zm-1.83-89.09a27.61,27.61,0,0,1-7.46-1,20.46,20.46,0,0,1-5.94-2.63,13.1,13.1,0,0,1-4-4,9.75,9.75,0,0,1-1.44-5.18,13.28,13.28,0,0,1,1.06-5.25,12.32,12.32,0,0,1,3.2-4.42,15.91,15.91,0,0,1,5.33-3A21.68,21.68,0,0,1,117.69,14a27.36,27.36,0,0,1,7.5,1,17.82,17.82,0,0,1,5.63,2.67,11.69,11.69,0,0,1,3.54,4.07,11,11,0,0,1,1.22,5.1,9.77,9.77,0,0,1-1.6,5.34,17.58,17.58,0,0,1-4,4.41,21.13,21.13,0,0,1-5.21,3A14.07,14.07,0,0,1,119.51,40.67Z"/></svg>